# xmcd CD database file
#
# Track frame offsets:
#	150
#	15632
#	38261
#	52615
#	74521
#	92881
#	111905
#	133287
#	151494
#	173573
#	187114
#	205634
#
# Disc length: 2922 seconds
#
# Revision: 2
# Processed by: cddbd v1.5.1PL0 Copyright (c) Steve Scherf et al.
# Submitted via: CDex 1.60beta1-cs1
#
DISCID=9a0b680c
DTITLE=Copeland - In Motion
DYEAR=2005
DGENRE=Rock
TTITLE0=No One Really Wins
TTITLE1=Choose The One Who Loves You More
TTITLE2=Pin Your Wings
TTITLE3=Sleep
TTITLE4=Kite
TTITLE5=Don't Slow Down
TTITLE6=Love Is A Fast Song
TTITLE7=You Have My Attention
TTITLE8=You Love To Sing
TTITLE9=Hold Nothing Back
TTITLE10=Don't Slow Down (Acoustic ver.)
TTITLE11=Pin Your Wings (Acoustic ver.)
EXTD=YEAR: 2005
EXTT0=
EXTT1=
EXTT2=
EXTT3=
EXTT4=
EXTT5=
EXTT6=
EXTT7=
EXTT8=
EXTT9=
EXTT10=
EXTT11=
PLAYORDER=
